<?xml version="1.0" encoding="UTF-8" standalone="no"?>
<!-- Created with Inkscape (http://www.inkscape.org/) -->

<svg
   version="1.1"
   id="svg1"
   width="533.33331"
   height="673.33331"
   viewBox="0 0 533.33331 673.33331"
   sodipodi:docname="logo.svg"
   inkscape:version="1.3 (0e150ed6c4, 2023-07-21)"
   xmlns:inkscape="http://www.inkscape.org/namespaces/inkscape"
   xmlns:sodipodi="http://sodipodi.sourceforge.net/DTD/sodipodi-0.dtd"
   xmlns="http://www.w3.org/2000/svg"
   xmlns:svg="http://www.w3.org/2000/svg">
  <defs
     id="defs1" />
  <sodipodi:namedview
     id="namedview1"
     pagecolor="#ffffff"
     bordercolor="#000000"
     borderopacity="0.25"
     inkscape:showpageshadow="2"
     inkscape:pageopacity="0.0"
     inkscape:pagecheckerboard="0"
     inkscape:deskcolor="#d1d1d1"
     inkscape:zoom="0.70710678"
     inkscape:cx="454.66966"
     inkscape:cy="323.1478"
     inkscape:window-width="1920"
     inkscape:window-height="1009"
     inkscape:window-x="-8"
     inkscape:window-y="-8"
     inkscape:window-maximized="1"
     inkscape:current-layer="g1" />
  <g
     inkscape:groupmode="layer"
     inkscape:label="Image"
     id="g1">
    <g
       id="g20"
       transform="translate(6.6256611,6.6256661)">
      <g
         id="g22">
        <path
           style="fill:#cbcbcb"
           d="m 234.4236,662.41433 c -1.38741,-2.43299 -1.84466,-20.11765 -2.17399,-84.08101 -0.45506,-88.38468 -0.25786,-86.48686 -8.24349,-79.33334 -1.02329,0.91667 1.3352,-1.93333 5.2411,-6.33333 9.52432,-10.72915 9.41944,-10.77988 9.41944,4.55556 0,13.44444 0,13.44444 5.01665,13.44444 5.01665,0 5.01665,0 7.55044,9 28.95811,102.85878 120.00462,156.0926 174.04826,101.76395 28.35947,-28.50904 28.55115,-102.20579 0.27167,-104.45518 -3.4212,-0.27212 0.97964,-0.6108 9.77964,-0.75262 30.8841,-0.49771 53.71829,-7.99908 68.08669,-22.36748 3.98565,-3.98565 7.29254,-7.0836 7.34865,-6.88432 5.57127,19.78703 1.086,65.54162 -8.69699,88.71875 -34.33215,81.33719 -106.93884,108.94312 -191.63457,72.86173 -38.10941,-16.23506 -45.57036,-15.72984 -61.612,4.17207 -10.64758,13.20983 -11.91027,14.05949 -14.4015,9.69078 z M 55.983775,642.62748 c -1.708494,-4.12467 -1.708494,-4.12467 -15.389436,-3.70942 -7.524517,0.22839 -13.401046,-0.0347 -13.058951,-0.58475 2.230418,-3.58594 27.101733,-0.9247 29.195351,3.12391 1.172906,2.26815 1.869075,4.38739 1.547043,4.70942 -0.322032,0.32203 -1.354335,-1.27059 -2.294007,-3.53916 z m 14.016222,-5.29417 c -1.85804,-3.66666 -3.078255,-6.66666 -2.711589,-6.66666 0.366667,0 2.186882,3 4.044923,6.66666 1.85804,3.66667 3.078255,6.66667 2.711589,6.66667 -0.366667,0 -2.186882,-3 -4.044923,-6.66667 z m -38.002795,-7.66666 c -0.0015,-0.55 3.9674,-0.79575 8.819864,-0.54612 8.822661,0.45389 8.822661,0.45389 4.156628,-8.33333 -2.566318,-4.83297 -4.264035,-8.78722 -3.772706,-8.78722 1.361334,0 9.417584,16.93698 8.495059,17.85951 -1.172567,1.17256 -17.69553,0.99254 -17.698845,-0.19284 z m -12.663869,-8.33334 c 1.85804,-3.66666 3.678255,-6.66666 4.044922,-6.66666 0.366666,0 -0.853549,3 -2.711589,6.66666 -1.858041,3.66667 -3.678256,6.66667 -4.044922,6.66667 -0.366667,0 0.853548,-3 2.711589,-6.66667 z m 37.333332,-9.33333 c -1.858041,-3.66667 -3.078256,-6.66666 -2.711589,-6.66666 0.366666,0 2.186881,2.99999 4.044922,6.66666 1.85804,3.66667 3.078255,6.66667 2.711589,6.66667 -0.366667,0 -2.186882,-3 -4.044922,-6.66667 z m -27.359976,-9 c 1.350026,-2.78585 2.235645,-2.98084 12.406888,-2.73167 10.953088,0.26832 10.953088,0.26832 0.389368,0.7269 -7.949091,0.34507 -11.019922,1.02119 -12.406888,2.73167 -1.63555,2.01705 -1.679409,1.93518 -0.389368,-0.7269 z m 39.773584,-34.33333 c 0.299644,-2.56667 0.779163,-4.66667 1.065599,-4.66667 0.286436,0 0.520792,2.1 0.520792,4.66667 0,2.56667 -0.47952,4.66667 -1.065599,4.66667 -0.586079,0 -0.820436,-2.1 -0.520792,-4.66667 z m -56.925605,-0.0839 c -0.08718,-1.5503 1.736257,-4.45941 4.178665,-6.66667 4.333333,-3.91612 4.333333,-3.91612 0.796316,0.0839 -1.945359,2.2 -3.825759,5.2 -4.178665,6.66667 -0.624962,2.59732 -0.645669,2.59514 -0.796316,-0.0839 z m 27.84533,-10.58279 c 1.722328,-1.83333 3.431504,-3.33333 3.798171,-3.33333 0.366667,0 -0.74251,1.5 -2.464837,3.33333 -1.722327,1.83334 -3.431504,3.33334 -3.798171,3.33334 -0.366666,0 0.74251,-1.5 2.464837,-3.33334 z M 23.999999,555.3333 c 1.722327,-1.83334 3.431504,-3.33334 3.798171,-3.33334 0.366666,0 -0.74251,1.5 -2.464838,3.33334 -1.722327,1.83333 -3.431504,3.33333 -3.79817,3.33333 -0.366667,0 0.74251,-1.5 2.464837,-3.33333 z m 25.333332,-5.33334 c 1.722328,-1.83333 3.431504,-3.33333 3.798171,-3.33333 0.366667,0 -0.74251,1.5 -2.464837,3.33333 -1.722327,1.83334 -3.431504,3.33334 -3.798171,3.33334 -0.366667,0 0.74251,-1.5 2.464837,-3.33334 z M 33.333332,547.3333 c 1.722327,-1.83334 3.431504,-3.33334 3.798171,-3.33334 0.366666,0 -0.74251,1.5 -2.464838,3.33334 -1.722327,1.83333 -3.431504,3.33333 -3.79817,3.33333 -0.366667,0 0.74251,-1.5 2.464837,-3.33333 z m 25.333332,-5.33334 c 1.722328,-1.83333 3.431504,-3.33333 3.798171,-3.33333 0.366667,0 -0.74251,1.5 -2.464837,3.33333 -1.722327,1.83334 -3.431504,3.33334 -3.798171,3.33334 -0.366667,0 0.74251,-1.5 2.464837,-3.33334 z m -19.999999,1.58279 c 0,-0.22946 1.95,-2.17946 4.333333,-4.33333 4.333334,-3.91612 4.333334,-3.91612 0.417212,0.41721 -3.650374,4.03927 -4.750545,4.9462 -4.750545,3.91612 z m 26.888448,-6.91612 c 1.22198,-1.46667 2.482081,-4.46667 2.800224,-6.66667 0.578441,-4 0.578441,-4 0.778218,0.12669 0.135922,2.80768 -0.759106,4.93853 -2.800224,6.66666 -2.976086,2.51974 -2.982289,2.51873 -0.778218,-0.12668 z M 173.66666,516.37831 c 2.01667,-0.3055 5.31667,-0.3055 7.33333,0 2.01667,0.3055 0.36667,0.55546 -3.66666,0.55546 -4.03334,0 -5.68334,-0.24996 -3.66667,-0.55546 z m 232.66666,-1.26137 c 0.91666,-0.36988 2.41666,-0.36988 3.33333,0 0.91667,0.36989 0.16667,0.67252 -1.66667,0.67252 -1.83333,0 -2.58333,-0.30263 -1.66666,-0.67252 z M 301.72209,394.33332 c -0.10834,-64.35 0.28954,-117 0.88418,-117 0.59463,0 3.99829,3.97338 7.56369,8.82972 6.74887,9.19248 19.11802,20.61859 32.654,30.16442 5.69082,4.01328 7.65711,6.15158 7.01156,7.62495 -1.77405,4.04907 -2.17496,36.08583 -0.55463,44.32179 6.18021,31.41338 25.96373,45.50682 75.38812,53.70517 34.74977,5.76418 42.62299,12.19129 36.0424,29.42232 -7.83427,20.51373 -68.64205,18.47837 -104.18315,-3.48723 -2.297,-1.41963 -4.55554,-2.58114 -5.01899,-2.58114 -0.46344,0 -0.97208,13.05 -1.1303,29 -0.28769,29 -0.28769,29 -1,4.82705 -0.71232,-24.17294 -0.71232,-24.17294 -18.04565,-35.85327 -9.53333,-6.42418 -19.87516,-13.76194 -22.98184,-16.30613 -5.64851,-4.62579 -5.64851,-4.62579 -6.04047,39.85328 -0.21557,24.46349 -0.48059,-8.17093 -0.58892,-72.52093 z M 132.66666,499.99998 c -2.17851,-2.40722 -4.112,-2.66739 -19.87331,-2.6741 -19.706278,-0.008 -27.46002,-1.48383 -27.46002,-5.22531 0,-4.00001 2.710454,-5.14235 15.62167,-6.58385 6.75496,-0.75417 13.50348,-2.02507 14.9967,-2.82422 1.77514,-0.95003 2.71496,-0.98386 2.71496,-0.0978 0,0.74539 3.97268,5.5665 8.82817,10.71358 4.8555,5.14707 8.54849,9.35832 8.20665,9.35832 -0.34183,0 -1.7075,-1.2 -3.03482,-2.66667 z M 31.999999,476.80626 c 0,-12.82356 0.45,-23.59471 1,-23.93588 0.55,-0.34118 0.823247,9.82341 0.607216,22.58797 -0.392784,23.2083 -0.392784,23.2083 7.635181,23.2083 8.027965,0 8.027965,0 8.441441,-22.66789 0.413476,-22.66788 0.413476,-22.66788 0.364819,0.33334 -0.04866,23.00122 -0.04866,23.00122 -9.048658,23.39547 -8.999999,0.39425 -8.999999,0.39425 -8.999999,-22.92131 z M 187.4873,459.37025 c -35.98657,-12.82628 -35.74151,-114.37143 0.30565,-126.65394 23.98326,-8.17191 47.89765,10.89576 48.68108,38.81492 0.10595,3.77551 0.49263,6.38231 0.85929,5.79288 1.80101,-2.89518 0.16158,42.64704 -1.8126,50.35303 -6.89879,26.92859 -26.01416,39.54118 -48.03342,31.69311 z m 334.30309,-17.37026 c 0.005,-5.86667 0.23926,-8.10081 0.52092,-4.96476 0.28166,3.13605 0.2777,7.93605 -0.009,10.66667 -0.2865,2.73061 -0.51695,0.16475 -0.51211,-5.70191 z M 31.025375,425.74267 c 1.29729,-0.33806 3.09729,-0.31583 4,0.0494 0.902709,0.36523 -0.15871,0.64183 -2.35871,0.61465 -2.199999,-0.0272 -2.93858,-0.326 -1.64129,-0.66405 z m 16.64129,0.0409 c 0.916666,-0.36988 2.416666,-0.36988 3.333333,0 0.916667,0.36989 0.166667,0.67252 -1.666667,0.67252 -1.833333,0 -2.583333,-0.30263 -1.666666,-0.67252 z m -29.925647,-5.21423 c -3.741019,-3.4306 -3.741019,-3.4306 0.592315,-0.41592 2.383333,1.65808 4.333333,3.20185 4.333333,3.43061 0,1.05245 -1.474821,0.14981 -4.925648,-3.01469 z m 46.373634,-1.39368 c 1.770273,-2.28669 3.486861,-3.91851 3.814638,-3.62626 0.327778,0.29224 -1.120628,2.16317 -3.218679,4.15762 -3.814639,3.62626 -3.814639,3.62626 -0.595959,-0.53136 z m 32.095871,-1.84238 c 0,-1.83333 0.302631,-2.58333 0.672514,-1.66667 0.369883,0.91667 0.369883,2.41667 0,3.33334 -0.369883,0.91666 -0.672514,0.16666 -0.672514,-1.66667 z m -64.380598,-2.33333 c -1.692687,-2.15834 -1.629934,-2.18664 0.83674,-0.37729 1.466667,1.07582 2.916667,2.12582 3.222223,2.33333 0.305555,0.20751 -0.07098,0.37729 -0.836741,0.37729 -0.765763,0 -2.215763,-1.05 -3.222222,-2.33333 z m 15.873398,0.25773 c 1.629838,-1.14159 3.01071,-3.09159 3.068605,-4.33334 0.07031,-1.50809 0.337098,-1.67872 0.803495,-0.51391 0.767246,1.91618 -3.146824,6.92285 -5.412083,6.92285 -0.782847,0 -0.08986,-0.93402 1.539983,-2.0756 z M 12.288295,395.60573 C 12,378.54482 12,378.54482 20.999999,378.93907 c 9,0.39425 9,0.39425 9.061534,16.39425 0.06153,16 0.06153,16 -0.374371,0.33333 -0.701179,-25.20068 -16.042671,-24.58792 -16.691162,0.66667 -0.419409,16.33333 -0.419409,16.33333 -0.707705,-0.72759 z M 94.976,395.99999 c 0,-2.56667 0.274394,-3.61667 0.609764,-2.33334 0.33537,1.28334 0.33537,3.38334 0,4.66667 -0.33537,1.28333 -0.609764,0.23333 -0.609764,-2.33333 z m 409.60677,-5.66667 c -3.91612,-4.33333 -3.91612,-4.33333 0.41721,-0.41721 2.38333,2.15387 4.33333,4.10387 4.33333,4.33333 0,1.03008 -1.10017,0.12316 -4.75054,-3.91612 z M 55.636925,379.03768 c 2.366977,-0.29455 6.566977,-0.29939 9.333333,-0.0108 2.766357,0.28864 0.829739,0.52963 -4.303594,0.53555 -5.133333,0.006 -7.396715,-0.23024 -5.029739,-0.52479 z m 40.573598,-4.37102 c 0,-1.83334 0.302631,-2.58334 0.672514,-1.66667 0.369883,0.91667 0.369883,2.41667 0,3.33333 -0.369883,0.91667 -0.672514,0.16667 -0.672514,-1.66666 z M 65.873314,358.33332 c -2.539983,-3 -2.539983,-3 0.460017,-0.46001 2.819259,2.38695 3.606987,3.46001 2.539983,3.46001 -0.253009,0 -1.603009,-1.35 -3,-3 z m 341.333316,-1.33333 c -2.53998,-3 -2.53998,-3 0.46002,-0.46002 1.65,1.39699 3,2.74699 3,3 0,1.06701 -1.07306,0.27928 -3.46002,-2.53998 z m -347.753506,-3.5343 c -1.826674,-2.01845 -1.936585,-2.74045 -0.539983,-3.5471 0.964438,-0.55704 1.302214,-0.5153 0.750614,0.0928 -0.5516,0.60806 -0.0086,2.20426 1.20665,3.5471 1.215258,1.34285 1.909559,2.44154 1.542893,2.44154 -0.366667,0 -1.698745,-1.14043 -2.960174,-2.5343 z m -25.119792,-1.07334 c 1.65,-0.31781 4.35,-0.31781 6,0 1.65,0.3178 0.3,0.57782 -3,0.57782 -3.3,0 -4.65,-0.26002 -3,-0.57782 z m 368.593248,-6.39236 c 0.0272,-2.2 0.326,-2.93858 0.66406,-1.64129 0.33806,1.29729 0.31582,3.09729 -0.0494,4 -0.36523,0.90271 -0.64182,-0.15871 -0.61465,-2.35871 z M 11.451858,342.56436 c -1.8985222,-2.25627 -3.4336131,-4.80627 -3.4113134,-5.66667 0.0223,-0.8604 0.7042412,-0.36437 1.5154255,1.1023 0.8111839,1.46667 2.6975279,4.01667 4.1918739,5.66667 1.494346,1.65 2.365741,3 1.936432,3 -0.429308,0 -2.333896,-1.84604 -4.232418,-4.1023 z m 27.548141,1.84986 c 1.283333,-0.33537 3.383333,-0.33537 4.666666,0 1.283333,0.33537 0.233333,0.60977 -2.333333,0.60977 -2.566667,0 -3.616667,-0.2744 -2.333333,-0.60977 z m 13.666666,-4.41423 c 1.327315,-1.46667 2.7133,-2.66667 3.079966,-2.66667 0.366667,0 -0.419318,1.2 -1.746633,2.66667 -1.327315,1.46667 -2.7133,2.66667 -3.079967,2.66667 -0.366666,0 0.419319,-1.2 1.746634,-2.66667 z m -26.873231,-3.39084 c -0.434246,-1.13162 -0.491617,-2.35542 -0.127491,-2.71955 0.364126,-0.36412 0.982077,0.56175 1.373225,2.05751 0.830867,3.17723 -0.0923,3.66785 -1.245734,0.66204 z M 7.0298185,329.33332 c 0,-3.3 0.2600214,-4.65 0.5778252,-3 0.3178039,1.65 0.3178039,4.35 0,6 -0.3178038,1.65 -0.5778252,0.3 -0.5778252,-3 z m 17.1807065,0 c 0,-1.83333 0.302632,-2.58333 0.672515,-1.66666 0.369883,0.91666 0.369883,2.41666 0,3.33333 -0.369883,0.91667 -0.672515,0.16667 -0.672515,-1.66667 z m 50.71607,-0.66666 c 0.02717,-2.2 0.325999,-2.93858 0.664056,-1.64129 0.338058,1.29729 0.315826,3.09729 -0.0494,4 -0.365231,0.90271 -0.641823,-0.15871 -0.614651,-2.35871 z m 375.406725,-1.54971 c 0.91666,-0.36988 2.41666,-0.36988 3.33333,0 0.91667,0.36988 0.16667,0.67251 -1.66667,0.67251 -1.83333,0 -2.58333,-0.30263 -1.66666,-0.67251 z m -15.98446,-1.39331 c 1.65855,-0.31892 4.05855,-0.30681 5.33334,0.0269 1.27478,0.33372 -0.0822,0.59466 -3.01555,0.57986 -2.93333,-0.0148 -3.97634,-0.28784 -2.31779,-0.60677 z M 72.332449,319.66666 c -1.433451,-3.91773 -1.397548,-4.08511 0.37435,-1.74516 1.695679,2.23929 2.697097,6.07849 1.585515,6.07849 -0.205892,0 -1.087832,-1.95 -1.959865,-4.33333 z m 159.635041,-16.693 c -20.20541,-25.59072 -55.79582,-34.57899 -82.9386,-20.94595 -3.61973,1.81809 -6.83203,3.30561 -7.13844,3.30561 -0.30642,0 -0.55712,-56.70523 -0.55712,-126.01164 0,-126.011643 0,-126.011643 -7,-125.37222 -3.85,0.351683 -16,0.967719 -27,1.368971 C 59.860693,37.050108 38.164698,57.26226 23.861282,113.08162 18.791753,132.86555 17.649658,135.7199 14.389054,136.75477 8.7998545,138.52872 8.6838047,137.28624 8.2724382,71.26789 7.8782101,7.9999998 7.8782101,7.9999998 188.69862,7.9999998 c 180.82041,0 180.82041,0 180.39422,63.2678992 -0.51947,77.115621 -1.71696,81.497211 -12.58976,46.065431 -20.62239,-67.203316 -38.67596,-82.50117 -97.50309,-82.620147 -23,-0.04652 -23,-0.04652 -23,110.032167 0,73.04627 0.44856,109.80146 1.33333,109.25464 0.87314,-0.53963 1.33334,9.09727 1.33334,27.92131 0,15.80995 -0.15,28.73351 -0.33334,28.71903 -0.18333,-0.0145 -3.04796,-3.46448 -6.36583,-7.66667 z m -177.300825,4.29282 c -4.067639,-1.16507 -4.926466,-1.73374 -2.666667,-1.76571 1.833333,-0.0259 5.133333,0.77704 7.333333,1.7844 4.92319,2.25429 3.245544,2.24757 -4.666666,-0.0187 z m -16.317788,-2.87617 c 1.65855,-0.31892 4.05855,-0.30682 5.333334,0.0269 1.274783,0.33372 -0.08221,0.59466 -3.015546,0.57986 -2.933333,-0.0148 -3.976338,-0.28785 -2.317788,-0.60677 z m 90.984453,-9.05699 c 2.48771,-2.56666 4.82311,-4.66666 5.18978,-4.66666 0.36666,0 -1.36874,2.1 -3.85645,4.66666 -2.48771,2.56667 -4.82311,4.66667 -5.18978,4.66667 -0.36666,0 1.36874,-2.1 3.85645,-4.66667 z m 234.66666,1.33334 c 1.72232,-1.83334 3.4315,-3.33334 3.79817,-3.33334 0.36666,0 -0.74251,1.5 -2.46484,3.33334 -1.72233,1.83333 -3.4315,3.33333 -3.79817,3.33333 -0.36667,0 0.74251,-1.5 2.46484,-3.33333 z m 115.05854,-15.68627 c -6.62084,-1.27424 -7.05193,-1.61898 -9.33334,-7.46386 -35.47091,-90.8753 -123.50473,-126.81975 -162.60129,-66.39056 -4.10319,6.34205 -4.16339,6.27644 -4.71651,-5.141 -0.45143,-9.31831 -0.45143,-9.31831 -15.66222,-9.98498 -15.2108,-0.66666 -15.2108,-0.66666 -5.80097,-9.33333 36.92299,-34.00689 83.67991,-38.68024 136.38912,-13.63206 37.5726,17.85503 39.10817,18.40939 44.90747,16.21209 6.40719,-2.42763 9.64633,-6.67877 12.55411,-16.47637 9.63082,-32.45059 11.20082,-25.84165 12.40754,52.22967 0.52424,33.91667 0.46815,61.58784 -0.12465,61.4915 -0.59279,-0.0963 -4.20146,-0.77633 -8.01926,-1.5111 z M 31.242151,269.33333 c 0.09118,-8.66667 0.09118,-8.66667 4.091181,-8.79098 3.650305,-0.11343 3.684613,-0.0773 0.392428,0.41341 -3.410444,0.50832 -3.633998,0.98869 -4.091181,8.79097 -0.483608,8.25326 -0.483608,8.25326 -0.392428,-0.4134 z m 39.153193,5.3249 c -2.922706,-5.13631 -2.055476,-5.13175 1.604653,0.008 1.566538,2.2 2.357395,3.9962 1.757459,3.99157 -0.599936,-0.005 -2.112886,-1.80464 -3.362112,-4 z m 339.937976,1.79205 c 0.91666,-0.36988 2.41666,-0.36988 3.33333,0 0.91667,0.36989 0.16667,0.67252 -1.66667,0.67252 -1.83333,0 -2.58333,-0.30263 -1.66666,-0.67252 z m 42.66666,0 c 0.91667,-0.36988 2.41667,-0.36988 3.33334,0 0.91666,0.36989 0.16666,0.67252 -1.66667,0.67252 -1.83333,0 -2.58333,-0.30263 -1.66667,-0.67252 z M 301.90674,245.33333 c 0,-17.23334 0.19002,-24.28334 0.42227,-15.66667 0.23225,8.61667 0.23225,22.71667 0,31.33333 -0.23225,8.61667 -0.42227,1.56667 -0.42227,-15.66666 z m 127.75991,29.71166 c 2.01667,-0.3055 5.31667,-0.3055 7.33333,0 2.01667,0.3055 0.36667,0.55545 -3.66666,0.55545 -4.03334,0 -5.68334,-0.24995 -3.66667,-0.55545 z M 44.18562,263.95563 c -1.731242,-1.44227 -2.574234,-2.6223 -1.873317,-2.6223 0.700917,0 2.36038,1.2 3.687695,2.66666 3.049173,3.3693 2.26008,3.35001 -1.814378,-0.0444 z m 18.310971,-0.83838 c -1.00646,-1.21885 -3.503151,-3.23644 -5.548203,-4.48353 -3.718276,-2.26745 -3.718276,-2.26745 0.386436,-3.96768 2.257592,-0.93512 5.043044,-2.96754 6.189893,-4.51647 1.146849,-1.54893 1.830731,-1.91624 1.519738,-0.81624 -0.310994,1.1 -2.330942,3.17231 -4.488773,4.60514 -3.923331,2.60514 -3.923331,2.60514 0.760492,6.96392 2.576103,2.39733 4.30729,4.37502 3.847083,4.39486 -0.460207,0.0198 -1.660207,-0.96116 -2.666666,-2.18 z m -31.29905,-11.657 c -2.533483,-6.60215 -0.04844,-10.79002 6.47772,-10.91646 6.341928,-0.12288 6.341928,-0.12288 0.333333,0.40638 -9.180012,0.80862 -9.47305,10.58446 -0.341929,11.40688 5.666667,0.51039 5.666667,0.51039 -0.04185,0.74333 -3.84189,0.15678 -5.943542,-0.37953 -6.427278,-1.64013 z M 62.80052,238.27269 c -1.686558,-2.80841 -1.658145,-2.83683 0.637774,-0.63778 1.321635,1.26588 2.115975,2.58859 1.765199,2.93937 -0.350777,0.35077 -1.432114,-0.68494 -2.402973,-2.30159 z m -17.800522,-5.88034 c 1.65,-0.3178 4.35,-0.3178 6,0 1.65,0.3178 0.3,0.57782 -3,0.57782 -3.3,0 -4.65,-0.26002 -3,-0.57782 z m -5.974624,-26.64968 c 1.29729,-0.33806 3.09729,-0.31582 4,0.0494 0.90271,0.36523 -0.158709,0.64182 -2.358709,0.61465 -2.2,-0.0272 -2.938581,-0.326 -1.641291,-0.66406 z m -16.948525,-2.95166 c -0.410958,-0.66495 0.453632,-0.89497 1.92131,-0.51116 3.113317,0.81415 3.506862,1.72014 0.747196,1.72014 -1.056721,0 -2.257549,-0.54404 -2.668506,-1.20898 z m 34.03426,0.72292 c 0.305556,-0.26733 2.055555,-1.20043 3.888889,-2.07355 3.143024,-1.49686 3.185567,-1.46911 0.74516,0.48606 -2.123998,1.70167 -6.463815,3.18837 -4.634049,1.58749 z m -39.571126,-5.1806 c -2.539984,-3 -2.539984,-3 0.460016,-0.46002 2.81926,2.38696 3.606988,3.46002 2.539984,3.46002 -0.253009,0 -1.603009,-1.35 -3,-3 z m 22.485391,-1.92399 c 1.29729,-0.33806 3.09729,-0.31583 4,0.0494 0.90271,0.36523 -0.158709,0.64182 -2.358709,0.61465 -2.2,-0.0272 -2.938581,-0.326 -1.641291,-0.66406 z m 27.018994,-0.18047 c 0.499835,-0.97412 1.392758,-3.37412 1.984273,-5.33333 0.863012,-2.85847 1.098123,-3.01988 1.190086,-0.81705 0.06303,1.50984 -0.829891,3.90984 -1.984273,5.33333 -1.154382,1.4235 -1.689921,1.79117 -1.190086,0.81705 z M 12.240331,175.74535 C 12.108148,166.43863 12.45,158.54393 13,158.20157 c 0.549999,-0.34237 0.839189,4.57222 0.642643,10.92131 -0.659544,21.30539 -1.160193,23.66972 -1.402312,6.62247 z m 17.086937,-1.35024 c -0.363331,-9.31602 -0.190695,-16.46611 0.383636,-15.88909 0.574331,0.57701 0.871602,8.19921 0.660602,16.93821 -0.383636,15.8891 -0.383636,15.8891 -1.044238,-1.04912 z"
           id="path22" />
        <path
           style="fill:#000000;fill-opacity:1;stroke-width:29.29999924;stroke-dasharray:none"
           d="m 415.99998,513.11327 c -10.76487,-0.94171 -33.66224,-4.94337 -41.68602,-7.28526 -1.29398,-0.37768 -1.99492,-1.26558 -1.55763,-1.97313 0.46591,-0.75385 -1.16258,-1.15461 -3.93352,-0.968 -2.60072,0.17515 -5.10987,-0.0628 -5.57588,-0.52884 -1.23555,-1.23555 0.71305,-3.87349 2.18794,-2.96196 0.68784,0.42511 1.61057,-0.16511 2.05052,-1.31159 0.50411,-1.31368 2.44371,-2.0845 5.24522,-2.0845 5.07574,0 7.22477,-2.01865 3.25438,-3.05693 -3.23885,-0.84697 -7.985,0.26993 -7.985,1.8791 0,0.6478 -1.2,1.17783 -2.66667,1.17783 -1.48148,0 -2.66667,0.88888 -2.66667,1.99999 0,2.40484 -0.26266,2.43067 -4.60393,0.45265 -1.86784,-0.85104 -3.39607,-2.35104 -3.39607,-3.33333 0,-2.25337 2.22035,-2.33826 3.12072,-0.11931 0.46294,1.14093 1.02373,1.2222 1.77777,0.25763 1.21191,-1.55026 7.09043,-3.93604 12.72118,-5.16286 1.99082,-0.43376 5.12036,-2.28935 6.95454,-4.12353 1.83419,-1.83419 4.10534,-3.17806 5.047,-2.9864 0.94167,0.19167 1.58923,-0.32019 1.43903,-1.13746 -0.18182,-0.98931 1.15508,-1.18431 4,-0.58346 4.11487,0.86906 8.62884,-1.523 16.46148,-8.72333 0.87316,-0.80267 8.08798,-1.87488 16.03292,-2.38267 33.84038,-2.16289 45.92618,-11.67312 41.61604,-32.74736 -1.15271,-5.63612 -10.62501,-15.04618 -15.63193,-15.52922 -1.94631,-0.18777 -5.93875,-1.26155 -8.87208,-2.38618 -2.93334,-1.12463 -7.13334,-2.11849 -9.33334,-2.20857 -2.2,-0.0901 -3.1,-0.4702 -2,-0.8447 9.85072,-3.35375 13.36867,-8.44189 5.83674,-8.44189 -2.82535,0 -2.17596,-2.82761 0.82993,-3.61367 2.33804,-0.61141 2.66667,-1.81869 2.66667,-9.79648 0,-5.00453 0.60978,-9.47601 1.35508,-9.93663 2.52719,-1.56189 -0.15702,-3.3198 -5.10044,-3.34031 -5.07563,-0.0211 -11.0502,-2.42024 -6.92131,-2.77937 1.1,-0.0957 3.0544,-0.0664 4.34311,0.0651 2.58087,0.26326 6.68324,-3.12779 5.37118,-4.43986 -0.45397,-0.45397 -2.15682,-0.8254 -3.7841,-0.8254 -1.62729,0 -4.67729,-0.94508 -6.77778,-2.10019 -3.75346,-2.0641 -3.68991,-2.08568 3.69846,-1.25602 4.13464,0.46429 11.03464,1.10223 15.33333,1.41764 31.80641,2.33376 60.32884,16.3141 67.71702,33.19167 29.07619,66.42176 -14.75731,115.6836 -96.56789,108.52685 z M 155.96414,510.29749 C 82.06429,485.10252 77.476991,320.24798 149.69009,284.82593 c 11.17392,-5.48104 35.25212,-8.69484 37.52995,-5.00924 0.51553,0.83415 2.62865,1.51663 4.69581,1.51663 3.45968,0 9.8625,2.2819 14.75081,5.25703 1.1,0.66948 3.12047,1.56874 4.48994,1.99836 2.26657,0.71104 2.17235,1.03093 -1.05018,3.56578 -2.80363,2.20534 -3.21833,3.1724 -1.99335,4.64842 1.24471,1.49979 0.97554,1.86375 -1.37839,1.86375 -3.41593,0 -6.73469,2.90978 -6.73469,5.90476 0,1.15238 -0.45,2.09696 -1,2.09907 -0.55,0.002 -2.2,1.80038 -3.66666,3.99617 -1.46667,2.19578 -3.0894,3.99406 -3.60606,3.99616 -4.0282,0.0164 -7.19731,6.48393 -3.9109,7.98132 4.21858,1.92211 0.78634,5.28755 -8.11118,7.95331 -2.81353,0.84296 -4.81233,2.02318 -4.44179,2.62273 0.37054,0.59955 -0.5909,2.22027 -2.13653,3.60161 -1.54563,1.38135 -4.88908,7.01153 -7.42988,12.51153 -2.5408,5.5 -5.08844,10.92401 -5.66142,12.05334 -5.10517,10.06219 -3.35459,59.72192 2.60672,73.94666 6.1873,14.76399 15.63065,27.33333 20.53552,27.33333 1.00595,0 2.60087,0.93005 3.54426,2.06677 0.94339,1.13672 2.96686,1.9703 4.49659,1.85241 5.98915,-0.46158 7.41972,0.17059 8.29713,3.66647 1.05865,4.21799 8.83163,12.41435 11.77309,12.41435 1.12445,0 2.04445,0.48687 2.04445,1.08192 0,3.19596 5.52891,6.90723 8.17801,5.48948 1.49437,-0.79977 2.97968,-1.19148 3.30069,-0.87047 1.06261,1.06261 -11.76676,15.6324 -13.76504,15.6324 -1.07784,0 -3.48688,1.20127 -5.3534,2.66947 -9.09687,7.1556 -34.04426,8.97565 -49.72945,3.62804 z m 62.12558,-19.31889 c -1.20849,-1.20849 -4.92642,1.00093 -4.05553,2.41005 0.59738,0.96659 1.46929,0.91002 2.78339,-0.18059 1.05244,-0.87344 1.6249,-1.8767 1.27214,-2.22946 z m -31.42306,-22.97861 c 0,-0.73334 -0.6,-1.33334 -1.33333,-1.33334 -0.73334,0 -1.33334,0.6 -1.33334,1.33334 0,0.73333 0.6,1.33333 1.33334,1.33333 0.73333,0 1.33333,-0.6 1.33333,-1.33333 z m -4.88422,-141.91386 c 0.79767,-2.0787 -1.44707,-3.39515 -4.11578,-2.41374 -0.91667,0.33709 -1.66667,1.44871 -1.66667,2.47025 0,2.44911 4.8391,2.40182 5.78245,-0.0565 z m 66.5819,179.34505 c -1.6354,-1.2127 -1.14018,-7.17258 0.64544,-7.76779 0.89024,-0.29675 2.31082,0.9797 3.15685,2.83654 0.84604,1.85684 2.50465,3.58822 3.6858,3.8475 1.18116,0.25929 0.21152,0.78122 -2.15476,1.15985 -2.36627,0.37863 -4.76627,0.34438 -5.33333,-0.0761 z m 11.31786,-6.37421 c 1.65855,-0.31892 4.05855,-0.30682 5.33334,0.0269 1.27478,0.33372 -0.0822,0.59466 -3.01555,0.57986 -2.93333,-0.0148 -3.97634,-0.28785 -2.31779,-0.60677 z m -35.68221,-15.26209 c 0,-2.32712 0.33067,-2.51365 2,-1.12823 1.1,0.91292 2,1.82219 2,2.02061 0,0.19842 -0.9,0.70612 -2,1.12823 -1.38482,0.5314 -2,-0.0901 -2,-2.02061 z M 495.99998,337.48744 c -23.85402,-10.32224 -45.37218,-15.07088 -66.75078,-14.7306 -7.87733,0.12538 -14.95336,-0.16198 -15.7245,-0.63857 -0.77114,-0.47659 -3.07967,-0.53437 -5.13006,-0.12841 -3.53679,0.70027 -3.56632,0.66749 -0.5758,-0.6392 2.76635,-1.20874 2.92956,-1.66068 1.33334,-3.6921 -3.10147,-3.94707 -4.91814,-5.65689 -6.05696,-5.7007 -1.65846,-0.0638 -8.42857,-6.31521 -8.42857,-7.7828 0,-0.7074 -0.52069,-1.48618 -1.15709,-1.73062 -3.44108,-1.32175 -2.88257,-6.26667 0.76385,-6.76295 3.21779,-0.43794 3.38772,-0.66012 1.24462,-1.62736 -1.60995,-0.72661 -3.71797,-0.40944 -6,0.90277 -3.82163,2.19751 -7.39647,1.75794 -5.99741,-0.73746 0.55956,-0.99804 0.22909,-0.95736 -0.92503,0.11388 -0.98758,0.91667 -2.5756,1.66667 -3.52894,1.66667 -2.70247,0 -2.03733,-3.16869 1.07286,-5.11104 1.5434,-0.96387 2.43469,-1.15139 1.98064,-0.41672 -0.94062,1.52196 4.27799,3.57405 5.63588,2.21617 0.48862,-0.48863 -0.16921,-1.48029 -1.46186,-2.20369 -3.08094,-1.72418 -1.68445,-3.81805 2.54641,-3.81805 1.84243,0 4.20743,-0.85755 5.25554,-1.90566 5.24055,-5.24055 55.40834,-7.708 74.57053,-3.66767 40.90347,8.62446 38,5.99615 38,34.39873 0,14.2127 -0.45,25.81975 -1,25.79346 -0.55,-0.0263 -4.9,-1.73543 -9.66667,-3.79808 z M 246.53734,267.87317 c -1.76221,-1.53643 -3.02771,-3.63643 -2.81223,-4.66667 0.21548,-1.03025 -0.23452,-1.87317 -1,-1.87317 -0.92974,0 -1.39179,-11.0747 -1.39179,-33.35934 0,-33.35934 0,-33.35934 29,-33 29,0.35934 29,0.35934 28.75232,27.026 -0.2345,25.24799 -1.56094,44.11319 -2.74215,39 -0.61513,-2.66274 -2.99971,-3.1873 -3.03058,-0.66666 -0.0138,1.12994 -0.47592,1.02259 -1.43485,-0.33334 -1.07009,-1.51311 -1.57973,-1.59223 -2.09346,-0.32502 -0.37347,0.92123 -1.25408,1.31958 -1.9569,0.88521 -0.70282,-0.43437 -2.15306,-0.0634 -3.22276,0.82436 -1.1342,0.94131 -3.61085,1.28094 -5.94159,0.81479 -2.25381,-0.45076 -3.99669,-0.23243 -3.99669,0.50066 0,0.715 -1.8,1.3 -4,1.3 -2.2,0 -4,0.67634 -4,1.50297 0,1.00512 -2.26518,1.28532 -6.83836,0.8459 -5.86922,-0.56396 -6.93055,-0.30456 -7.48885,1.83036 -0.83294,3.18516 -1.85998,3.13099 -5.80211,-0.30605 z"
           id="path21" />
        <path
           style="fill:#000000;fill-opacity:1"
           d="m 7.9999997,645.84267 c 0,-0.45318 5.1822393,-10.65318 11.5160883,-22.66666 18.800489,-35.6591 32.153613,-30.19834 54.928354,22.46296 1.862134,4.30576 -15.434958,0.71086 -17.509256,-3.63899 -2.225378,-4.66667 -2.225378,-4.66667 -15.601854,-4.66667 -13.376476,0 -13.376476,0 -15.601854,4.66667 -2.059891,4.31964 -17.7314783,7.71592 -17.7314783,3.84269 z M 49.696047,629.85949 c 0.866039,-0.86604 -7.091153,-17.85951 -8.362715,-17.85951 -0.715603,0 -9.333333,16.64322 -9.333333,18.02525 0,0.94096 16.746185,0.78412 17.696048,-0.16574 z m -36.7651,-57.373 c -2.593757,-2.59376 2.294494,-8.60879 17.515322,-21.55273 16.776745,-14.26711 16.776745,-14.26711 0.165238,-14.93378 -33.0011407,-1.32443 -24.6761442,-8.55885 10.388491,-9.0276 35.142777,-0.4698 35.425686,0.15938 9.812962,21.82353 -17.187038,14.53741 -17.187038,14.53741 0.748299,14.9089 17.935336,0.37149 17.935336,0.37149 17.52037,4.66666 -0.369705,3.82671 -52.610514,7.65518 -56.150682,4.11502 z M 159.99999,514.18661 C 73.128715,490.5374 75.456968,295.9119 162.83533,277.17259 c 25.31347,-5.42877 52.31684,4.62321 69.13216,25.73438 6.0325,7.57364 6.0325,7.57364 6.69917,-51.33333 0.66666,-58.90698 0.66666,-58.90698 31.97518,-58.90698 31.30851,0 31.30851,0 31.01916,58.66667 -0.15913,32.26666 -0.29797,103.81666 -0.30851,158.99999 -0.0192,100.33333 -0.0192,100.33333 -31.3525,100.33333 -31.33333,0 -31.33333,0 -31.33333,-14.7864 0,-14.78639 0,-14.78639 -5.14082,-8.28277 -18.49869,23.4026 -47.15904,33.76703 -73.52585,26.58913 z m 35.44205,-5.94408 c 3.69891,-1.09846 7.32437,-1.03295 9.19089,-2.50116 1.86652,-1.4682 4.80589,-2.71366 5.88373,-2.71366 1.99828,0 15.28064,-13.57542 14.21803,-14.63803 -0.32101,-0.32101 -1.68479,0.19223 -3.17916,0.992 -2.6491,1.41775 -8.8472,-2.12465 -8.8472,-5.32061 0,-0.59505 -0.53807,-0.95248 -1.66252,-0.95248 -2.94146,0 -10.73654,-8.52781 -11.79519,-12.7458 -0.87741,-3.49588 -2.21959,-3.90708 -8.20874,-3.4455 -1.52973,0.11789 -3.95094,-0.22956 -4.89433,-1.36628 -0.94339,-1.13672 -2.42783,-2.42032 -3.43378,-2.42032 -4.90487,0 -14.41451,-12.94499 -20.60181,-27.70898 -5.96131,-14.22474 -9.1703,-63.99496 -4.06513,-74.05715 0.57298,-1.12933 3.05433,-7.14996 5.59513,-12.64996 2.5408,-5.5 6.79023,-11.13018 8.33586,-12.51153 1.54563,-1.38134 2.81643,-2.42753 2.44589,-3.02708 -0.37054,-0.59955 1.89343,-2.44269 4.70696,-3.28565 8.89752,-2.66576 12.21927,-4.81586 8.00069,-6.73797 -3.28641,-1.49739 -0.051,-8.76037 3.97719,-8.77681 0.51666,-0.002 1.80794,-2.19813 3.27461,-4.39391 1.46666,-2.19579 3.82376,-3.46373 4.37376,-3.46584 0.55,-0.002 1.0442,-0.79201 1.0442,-1.94439 0,-2.99498 3.29666,-6.10363 6.71259,-6.10363 2.35393,0 2.68939,-0.16509 1.44468,-1.66488 -1.22498,-1.47602 -0.94286,-2.53147 1.86077,-4.73681 3.22253,-2.53485 3.18417,-2.47909 0.9176,-3.19013 -1.36947,-0.42962 -5.04723,0.10743 -6.14723,-0.56205 -4.88831,-2.97513 -9.214,-6.45027 -12.67368,-6.45027 -2.06716,0 -4.91161,-0.35593 -5.75647,-0.85372 -10.55806,-6.22079 -49.76545,10.63115 -64.51463,33.74205 -54.949802,86.10233 -5.06002,216.90865 73.79729,193.49055 z m 18.38223,-14.71025 c -0.47844,-0.77413 0.92892,-2.42101 2.10705,-2.8731 2.93319,-1.12557 3.28695,0.722 0.95255,2.65937 -1.3141,1.09061 -2.46222,1.18032 -3.0596,0.21373 z m -30.08945,-25.88584 c -0.17265,-0.8138 0.86517,-1.24496 1.59851,-1.24496 0.73333,0 1.68688,0.90936 1.68688,1.6427 0,0.73333 -1.04194,2.10673 -1.77527,2.10673 -0.73334,0 0.0667,4.92804 -1.51012,-2.50447 z M 174.409,325.19247 c 0.14355,-1.38762 2.34099,-2.08897 3.25766,-2.42606 2.66871,-0.98141 5.97411,1.3957 5.17644,3.4744 -0.94335,2.45833 -8.88499,3.31021 -8.63297,0.87409 z m 81.44343,179.15496 c -1.18115,-0.25928 -2.83976,-1.99066 -3.6858,-3.8475 -1.86382,-4.09064 -4.76445,-3.52622 -4.80438,0.93486 -0.0374,4.18434 1.09341,4.91127 6.33542,4.07249 2.36628,-0.37863 3.33592,-0.90056 2.15476,-1.15985 z m 9.16311,-5.26355 c -1.27479,-0.33373 -3.67479,-0.34583 -5.33334,-0.0269 -1.65855,0.31892 -0.61554,0.59197 2.31779,0.60677 2.93333,0.0148 4.29033,-0.24614 3.01555,-0.57986 z m -37.01555,-14.39662 c 0,-0.19842 -0.99944,-0.99168 -2.09944,-1.9046 -1.66933,-1.38542 -1.64644,-1.34252 -1.64644,0.9846 0,1.9305 0.22848,2.0493 1.6133,1.5179 1.1,-0.42211 2.13258,-0.39948 2.13258,-0.5979 z M 210.9242,459.7653 c 36.15855,-10.83337 38.60895,-109.4218 3.13028,-125.94282 -30.60951,-14.25364 -52.72115,11.82406 -52.72115,62.17751 0,48.84948 18.77946,72.99663 49.59087,63.76531 z m 41.41525,-191.58608 c 0.5583,-2.13492 1.61963,-2.39432 7.48885,-1.83036 4.57318,0.43942 6.83836,0.15922 6.83836,-0.8459 0,-0.82663 1.8,-1.50297 4,-1.50297 2.2,0 4,-0.585 4,-1.3 0,-0.73309 1.74288,-0.95142 3.99669,-0.50066 2.33074,0.46615 4.80739,0.12652 5.94159,-0.81479 1.0697,-0.88776 2.51994,-1.25873 3.22276,-0.82436 0.70282,0.43437 1.58343,0.036 1.9569,-0.88521 0.51373,-1.26721 1.02337,-1.18809 2.09346,0.32502 0.95893,1.35593 1.421,1.46328 1.43485,0.33334 0.0309,-2.52064 2.41545,-1.99608 3.03058,0.66666 1.18121,5.11319 2.50765,-13.75201 2.74215,-39 0.24768,-26.66666 0.24768,-26.66666 -28.75232,-27.026 -29,-0.35934 -29,-0.35934 -29,33 0,22.28464 0.46205,33.35934 1.39179,33.35934 0.76548,0 1.21548,0.84292 1,1.87317 -0.87341,4.1759 7.551,9.03897 8.61434,4.97272 z m 146.91153,245.76997 c -11.42358,-1.66807 -25.85642,-4.95277 -41.58433,-9.46397 -6.13718,-1.76031 -12.11132,-59.1519 -6.15738,-59.1519 0.46345,0 2.72199,1.16151 5.01899,2.58114 35.5411,21.9656 96.34888,24.00096 104.18315,3.48723 6.58059,-17.23103 -1.29263,-23.65814 -36.0424,-29.42232 -58.31593,-9.67325 -76.66902,-27.49074 -76.66902,-74.43154 0,-63.53855 54.75458,-86.87362 147.33032,-62.78861 14.003,3.6431 14.003,3.6431 14.003,32.25125 0,22.36993 -0.36343,28.45594 -1.66666,27.91011 -0.91667,-0.38392 -7.36667,-3.10347 -14.33334,-6.04343 -47.14938,-19.89725 -89.99999,-16.54062 -89.99999,7.05 0,11.64604 5.6689,15.44017 29.26694,19.58799 71.90972,12.63956 88.73305,27.12802 88.73305,76.418 0,57.6809 -43.70276,83.46105 -122.08233,72.01605 z m 57.64398,-2.05711 c 0,-3.37949 78.02017,-55.1087 55.26666,-107.08691 -7.38818,-16.87757 -35.62936,-30.45166 -67.43577,-32.78542 -4.29869,-0.31541 -11.04244,-1.1096 -15.17708,-1.57389 -7.38837,-0.82966 -7.48317,-1.58933 -3.72971,0.47477 2.10049,1.15511 5.21299,1.69394 6.84028,1.69394 1.62728,0 3.64263,0.71518 4.0966,1.16915 1.31206,1.31207 -2.97781,5.45312 -5.55868,5.18986 -1.28871,-0.13145 -3.24311,-0.16072 -4.34311,-0.0651 -4.12889,0.35913 2.09568,1.88332 7.17131,1.90437 4.94342,0.0205 7.32271,2.47729 4.79552,4.03918 -0.7453,0.46062 -0.98766,4.85823 -0.98766,9.86276 0,7.97779 -0.69582,9.07569 -3.03386,9.6871 -3.00589,0.78606 -3.36825,3.59805 -0.5429,3.59805 7.53193,0 4.06867,5.15064 -5.78205,8.50439 -1.1,0.3745 -0.71199,0.46903 1.48801,0.55911 2.2,0.0901 6.65707,0.69395 9.59041,1.81858 2.93333,1.12463 6.70616,2.5915 8.65247,2.77927 5.00692,0.48304 14.63451,10.11309 15.78722,15.74921 4.31014,21.07424 -7.74978,32.26677 -41.59016,34.42966 -7.94494,0.50779 -15.49622,1.42471 -16.36938,2.22738 -7.83264,7.20033 -12.19132,8.71242 -16.30619,7.84336 -2.84492,-0.60085 -3.66419,-1.02701 -3.48237,-0.0377 0.1502,0.81727 -1.01499,2.23498 -1.95666,2.04331 -0.94166,-0.19166 -2.85047,0.78987 -4.68466,2.62406 -1.83418,1.83418 -5.19665,3.94859 -7.18747,4.38235 -5.63075,1.22682 -11.40575,3.27614 -12.61766,4.8264 -0.75404,0.96457 -1.75481,1.168 -2.21775,0.0271 -0.90037,-2.21895 -2.65485,-2.91051 -2.65485,-0.65714 0,0.98229 1.39882,1.93878 3.26666,2.78982 4.34127,1.97802 3.87925,2.39217 3.87925,-0.0127 0,-1.11111 0.79696,-1.87058 2.27844,-1.87058 1.46667,0 2.69255,-0.45238 2.69255,-1.10018 0,-1.60917 6.24728,-3.70957 9.48613,-2.8626 3.97039,1.03828 0.66658,6.35178 -3.79789,3.9369 -0.23924,-0.12941 -4.43053,1.10728 -5.24522,2.0845 -0.78634,0.94321 1.12194,3.28959 -2.05052,1.31159 -1.47129,-0.91733 -2.45748,2.94535 -2.18794,2.96196 15.80683,0.97383 1.91377,1.30272 5.57588,0.52884 3.96519,-0.83793 5.43469,0.13651 3.93352,0.968 -1.58643,0.87872 15.55347,3.04552 17.53648,3.35535 2.68259,0.41913 66.60215,0.97395 66.60215,4.68185 z m 49.77169,-196.40002 c 0,-28.40258 2.90347,-25.77427 -38,-34.39873 -19.16219,-4.04033 -69.32998,-1.57288 -74.57053,3.66767 -1.04811,1.04811 -3.41311,1.90566 -5.25554,1.90566 -4.23086,0 -5.62735,2.09387 -2.54641,3.81805 1.29265,0.7234 1.95048,1.71506 1.46186,2.20369 -1.35789,1.35788 -6.5765,-0.69421 -5.63588,-2.21617 0.45405,-0.73467 -0.43724,-0.54715 -1.98064,0.41672 -3.11019,1.94235 -3.77533,5.11104 -1.07286,5.11104 0.95334,0 2.54136,-0.75 3.52894,-1.66667 1.15412,-1.07124 1.48459,-1.11192 0.92503,-0.11388 -1.39906,2.4954 2.17578,2.93497 5.99741,0.73746 2.28203,-1.31221 4.39005,-1.62938 6,-0.90277 2.1431,0.96724 1.97317,1.18942 -1.24462,1.62736 -3.64642,0.49628 -4.20493,5.4412 -0.76385,6.76295 0.6364,0.24444 1.15709,1.02322 1.15709,1.73062 0,1.46759 6.77011,7.71899 8.42857,7.7828 1.13882,0.0438 2.95549,1.75363 6.05696,5.7007 1.59622,2.03142 1.43301,2.48336 -1.33334,3.6921 -2.99052,1.30669 -2.96099,1.33947 0.5758,0.6392 2.05039,-0.40596 4.35892,-0.34818 5.13006,0.12841 0.77114,0.47659 7.84717,0.76395 15.7245,0.63857 21.3786,-0.34028 42.89676,4.40836 66.75078,14.7306 4.76667,2.06265 9.11667,3.77179 9.66667,3.79808 0.55,0.0263 1,-11.58076 1,-25.79346 z M 33.333332,475.99999 c 0,-22.66667 0,-22.66667 8,-22.66667 7.999999,0 7.999999,0 7.999999,22.66667 0,22.66666 0,22.66666 -7.999999,22.66666 -8,0 -8,0 -8,-22.66666 z m -2.965311,-50.63347 c -14.294985,-2.57716 -17.034688,-7.31416 -17.034688,-29.45333 0,-15.9132 0,-15.9132 8,-15.9132 7.999999,0 7.999999,0 7.999999,15.85229 0,19.38707 1.286067,21.92549 11.10835,21.92549 10.533555,0 11.558316,-1.89004 11.558316,-21.31777 0,-16.46001 0,-16.46001 8.803769,-16.46001 8.80377,0 8.80377,0 8.333333,16.56999 -0.727675,25.63061 -11.587466,33.69694 -38.769079,28.79654 z m 17.78439,-68.76846 c -4.506611,-3.54363 -7.105585,-4.59978 -11.333333,-4.60551 -38.5632003,-0.0523 -39.0548411,-43.3525 -0.525216,-46.25733 34.771189,-2.62147 53.711325,28.3177 25.992223,42.45893 -5.489339,2.80045 -5.489339,2.80045 0.44562,7.93002 8.703842,7.52272 -5.046569,7.96966 -14.579294,0.47389 z m 0.453371,-13.15337 c 8.293049,-3.46506 11.865981,-14.42246 7.414798,-22.73957 -6.165606,-11.52055 -27.288615,-9.32669 -30.657422,3.18411 -3.951217,14.6737 8.949212,25.52763 23.242624,19.55546 z M 15.22264,277.44444 c -12.0314296,-12.02238 2.058672,-45.74608 18.82927,-45.06657 30.170574,1.22243 42.961718,12.82368 24.071178,21.83195 -4.591503,2.18953 -4.591503,2.18953 -0.380734,5.02717 3.733235,2.51582 14.257643,15.85292 14.257643,18.06806 0,0.89497 -15.76033,0.78451 -16.488337,-0.11557 -0.232582,-0.28755 -2.916508,-3.94538 -5.964281,-8.12851 -4.381039,-6.01306 -6.517123,-7.78873 -10.201019,-8.47984 -7.691271,-1.44289 -8.679695,-0.39517 -8.679695,9.20039 0,7.76222 -10.253367,12.84967 -15.444025,7.66292 z m 32.334523,-27.52507 c 3.95117,-5.40355 -1.029179,-10.23167 -9.960686,-9.65623 -6.490981,0.4182 -8.886224,4.71534 -6.334666,11.3646 1.133487,2.95382 13.862037,1.61939 16.295352,-1.70837 z M 26.445405,203.31942 C 10.12307,198.06839 5.6121619,158.66666 21.333333,158.66666 c 7.999999,0 7.999999,0 7.999999,15.85229 0,19.33635 1.405896,22.14771 11.075546,22.14771 10.435623,0 11.59112,-2.14728 11.59112,-21.53998 0,-16.46002 0,-16.46002 8.803769,-16.46002 13.358961,0 12.238842,36.01282 -1.335513,42.93794 -7.086383,3.61521 -24.331997,4.51074 -33.022849,1.71482 z"
           id="path20"
           sodipodi:nodetypes="sssssssssssssssssssssssssssssssssssssssssssssssscscsssssssssssssssssssssssssssssssssssssssssssssssssssssssssssssssssssssssssssssssssssscsssssssssssssssssssssssssssssssssssssssssssssssssssssssssssssssssssssssssssssssssssssssssssssssssssssssss" />
      </g>
    </g>
  </g>
</svg>
